<svg width="248" height="202" viewBox="0 0 248 202" fill="none" xmlns="http://www.w3.org/2000/svg">
<g filter="url(#filter0_i)">
<path d="M0.943095 0.399986H89.0711C110.575 0.399986 129.679 4.62399 146.383 13.072C163.087 21.328 176.047 33.136 185.263 48.496C194.479 63.664 199.087 81.232 199.087 101.2C199.087 121.168 194.479 138.832 185.263 154.192C176.047 169.36 163.087 181.168 146.383 189.616C129.679 197.872 110.575 202 89.0711 202H0.943095V0.399986ZM87.3431 170.32C102.127 170.32 115.087 167.536 126.223 161.968C137.551 156.208 146.191 148.144 152.143 137.776C158.287 127.216 161.359 115.024 161.359 101.2C161.359 87.376 158.287 75.28 152.143 64.912C146.191 54.352 137.551 46.288 126.223 40.72C115.087 34.96 102.127 32.08 87.3431 32.08H38.3831V170.32H87.3431ZM247.737 194.8V202H214.545V196.312L235.641 170.752H214.977V163.552H247.161V169.24L225.993 194.8H247.737Z" fill="#0024A1" fill-opacity="0.5"/>
</g>
<defs>
<filter id="filter0_i" x="0.9431" y="0.399994" width="246.794" height="211.6" filterUnits="userSpaceOnUse" color-interpolation-filters="sRGB">
<feFlood flood-opacity="0" result="BackgroundImageFix"/>
<feBlend mode="normal" in="SourceGraphic" in2="BackgroundImageFix" result="shape"/>
<feColorMatrix in="SourceAlpha" type="matrix" values="0 0 0 0 0 0 0 0 0 0 0 0 0 0 0 0 0 0 127 0" result="hardAlpha"/>
<feOffset dy="14"/>
<feGaussianBlur stdDeviation="5"/>
<feComposite in2="hardAlpha" operator="arithmetic" k2="-1" k3="1"/>
<feColorMatrix type="matrix" values="0 0 0 0 0 0 0 0 0 0 0 0 0 0 0 0 0 0 0.25 0"/>
<feBlend mode="normal" in2="shape" result="effect1_innerShadow"/>
</filter>
</defs>
</svg>
