<svg width="186" height="154" viewBox="0 0 186 154" fill="none" xmlns="http://www.w3.org/2000/svg">
<g filter="url(#filter0_i)">
<path d="M0.0276572 -1.04904e-05H67.3477C83.7743 -1.04904e-05 98.3677 3.22666 111.128 9.68C123.888 15.9867 133.788 25.0067 140.828 36.74C147.868 48.3267 151.388 61.7467 151.388 77C151.388 92.2533 147.868 105.747 140.828 117.48C133.788 129.067 123.888 138.087 111.128 144.54C98.3677 150.847 83.7743 154 67.3477 154H0.0276572V-1.04904e-05ZM66.0277 129.8C77.321 129.8 87.221 127.673 95.7277 123.42C104.381 119.02 110.981 112.86 115.528 104.94C120.221 96.8733 122.568 87.56 122.568 77C122.568 66.44 120.221 57.2 115.528 49.28C110.981 41.2133 104.381 35.0533 95.7277 30.8C87.221 26.4 77.321 24.2 66.0277 24.2H28.6277V129.8H66.0277ZM185.057 149.2V154H162.929V150.208L176.993 133.168H163.217V128.368H184.673V132.16L170.561 149.2H185.057Z" fill="#5D78D8"/>
</g>
<defs>
<filter id="filter0_i" x="0.02771" y="-1.52588e-05" width="185.03" height="161" filterUnits="userSpaceOnUse" color-interpolation-filters="sRGB">
<feFlood flood-opacity="0" result="BackgroundImageFix"/>
<feBlend mode="normal" in="SourceGraphic" in2="BackgroundImageFix" result="shape"/>
<feColorMatrix in="SourceAlpha" type="matrix" values="0 0 0 0 0 0 0 0 0 0 0 0 0 0 0 0 0 0 127 0" result="hardAlpha"/>
<feOffset dy="7"/>
<feGaussianBlur stdDeviation="5"/>
<feComposite in2="hardAlpha" operator="arithmetic" k2="-1" k3="1"/>
<feColorMatrix type="matrix" values="0 0 0 0 0 0 0 0 0 0 0 0 0 0 0 0 0 0 0.25 0"/>
<feBlend mode="normal" in2="shape" result="effect1_innerShadow"/>
</filter>
</defs>
</svg>
